<?xml version="1.0" standalone="no"?>
<!DOCTYPE svg PUBLIC "-//W3C//DTD SVG 20010904//EN"
 "http://www.w3.org/TR/2001/REC-SVG-20010904/DTD/svg10.dtd">
<svg version="1.0" xmlns="http://www.w3.org/2000/svg"
 width="600.000000pt" height="600.000000pt" viewBox="0 0 600.000000 600.000000"
 preserveAspectRatio="xMidYMid meet">
<g transform="translate(0.000000,600.000000) scale(0.100000,-0.100000)"
fill="#000000" stroke="none">
<path d="M2810 5000 c-330 -32 -658 -147 -945 -334 -152 -99 -356 -286 -475
-435 -170 -212 -303 -478 -369 -732 -95 -367 -78 -809 44 -1149 218 -609 702
-1074 1330 -1274 322 -103 755 -117 1090 -35 430 106 820 347 1096 678 234
280 378 591 445 961 18 100 26 470 11 558 -25 155 -52 278 -77 352 -109 320
-248 553 -465 779 -324 337 -740 553 -1190 616 -132 19 -376 26 -495 15z m452
-46 c824 -106 1494 -697 1697 -1499 51 -202 66 -505 36 -721 -122 -870 -805
-1551 -1697 -1691 -156 -24 -454 -24 -598 0 -229 39 -412 98 -600 193 -519
262 -894 715 -1040 1259 -47 175 -62 299 -63 500 0 318 58 571 194 850 95 195
196 340 346 495 263 274 586 468 933 559 105 28 251 55 340 64 99 10 341 5
452 -9z"/>
<path d="M3138 4853 c7 -3 16 -2 19 1 4 3 -2 6 -13 5 -11 0 -14 -3 -6 -6z"/>
<path d="M2878 4811 c-32 -29 -33 -31 -33 -111 0 -80 1 -82 33 -111 98 -88
218 33 170 172 -28 81 -109 105 -170 50z m120 -26 c-3 -3 -9 2 -12 12 -6 14
-5 15 5 6 7 -7 10 -15 7 -18z m-115 -32 c-5 -11 -8 -12 -13 -2 -5 7 -6 19 -3
26 5 11 8 12 13 2 5 -7 6 -19 3 -26z m104 7 c7 -14 13 -44 13 -66 0 -90 -78
-116 -100 -34 -12 44 1 115 23 124 25 10 52 0 64 -24z m30 -2 c-3 -8 -6 -5 -6
6 -1 11 2 17 5 13 3 -3 4 -12 1 -19z m-150 -80 c-3 -8 -6 -5 -6 6 -1 11 2 17
5 13 3 -3 4 -12 1 -19z m21 -63 c-3 -3 -9 2 -12 12 -6 14 -5 15 5 6 7 -7 10
-15 7 -18z m102 -19 c0 -2 -7 -7 -16 -10 -8 -3 -12 -2 -9 4 6 10 25 14 25 6z"/>
<path d="M3159 4812 c-40 -20 -51 -62 -24 -92 16 -17 15 -19 -5 -30 -52 -28
-44 -101 15 -125 79 -34 155 -4 155 60 0 23 -7 39 -21 48 l-21 15 21 7 c24 7
36 43 26 75 -15 46 -93 69 -146 42z m6 -42 c-18 -35 -21 -37 -21 -11 0 11 3
18 7 15 4 -2 9 3 13 11 3 8 8 15 11 15 3 0 -1 -13 -10 -30z m114 6 c9 -11 9
-16 0 -22 -8 -4 -9 -3 -5 4 4 7 2 12 -3 12 -6 0 -11 5 -11 10 0 14 5 13 19 -4z
m-35 -12 c19 -19 20 -26 4 -42 -32 -32 -87 2 -67 40 12 22 42 23 63 2z m-98
-99 c-9 -9 -14 -21 -11 -26 4 -5 1 -9 -4 -9 -6 0 -11 5 -11 12 0 14 31 50 38
44 2 -3 -3 -12 -12 -21z m92 -7 c18 -18 14 -36 -12 -53 -19 -12 -30 -14 -44
-6 -24 13 -34 45 -19 60 15 15 60 14 75 -1z m-89 -61 c12 -15 12 -17 -3 -11
-9 3 -16 13 -16 22 0 8 1 13 3 11 1 -2 9 -12 16 -22z m127 1 c4 -7 3 -8 -4 -4
-7 4 -12 2 -12 -5 0 -7 -3 -10 -6 -6 -6 5 3 27 11 27 2 0 7 -5 11 -12z"/>
<path d="M2640 4801 c-63 -18 -88 -116 -51 -198 39 -84 131 -96 188 -23 29 36
8 177 -30 209 -17 14 -78 21 -107 12z m-10 -36 c-7 -9 -15 -13 -19 -10 -3 3 1
10 9 15 21 14 24 12 10 -5z m106 3 c5 4 6 3 2 -2 -4 -5 -3 -15 4 -23 6 -7 9
-15 7 -17 -2 -2 -15 11 -29 28 -13 17 -18 25 -9 19 9 -7 20 -9 25 -5z m-27
-27 c28 -28 38 -104 17 -136 -31 -47 -80 -21 -96 51 -18 78 32 132 79 85z m55
-56 c-4 -8 -8 -15 -10 -15 -2 0 -4 7 -4 15 0 8 4 15 10 15 5 0 7 -7 4 -15z
m-18 -103 c-17 -16 -18 -16 -5 5 7 12 15 20 18 17 3 -2 -3 -12 -13 -22z m-91
-13 c4 -6 14 -8 24 -4 12 5 13 3 4 -6 -9 -9 -17 -8 -34 5 -13 9 -18 16 -12 16
7 0 15 -5 18 -11z"/>
<path d="M3467 4687 c-15 -46 -27 -97 -27 -114 0 -41 33 -80 78 -92 53 -15 79
-10 107 19 26 27 88 191 77 202 -4 3 -16 8 -26 10 -16 2 -24 -11 -48 -77 -16
-44 -34 -85 -40 -92 -17 -21 -66 -16 -82 10 -14 20 -12 30 16 110 16 49 29 90
27 92 -2 2 -15 6 -29 10 -24 6 -27 2 -53 -78z m35 -13 c-6 -11 -11 -13 -16 -5
-4 6 -2 11 3 11 6 0 11 8 12 18 0 9 3 12 5 5 3 -7 1 -20 -4 -29z m173 -4 c3
-5 1 -10 -4 -10 -6 0 -11 5 -11 10 0 6 2 10 4 10 3 0 8 -4 11 -10z m-198 -42
c-3 -8 -6 -5 -6 6 -1 11 2 17 5 13 3 -3 4 -12 1 -19z m12 -94 c4 3 8 -1 8 -9
0 -8 -2 -15 -3 -15 -8 0 -34 33 -34 43 0 7 5 4 11 -6 6 -9 14 -15 18 -13z
m106 -24 c-3 -5 -12 -10 -18 -10 -7 0 -6 4 3 10 19 12 23 12 15 0z"/>
<path d="M2321 4711 c-23 -6 -27 -16 -43 -106 -10 -55 -16 -110 -13 -122 l5
-22 55 25 c58 27 75 25 75 -8 0 -17 4 -19 27 -13 39 9 40 12 21 46 -16 28 -16
29 3 29 16 0 19 4 13 23 -9 30 -11 32 -28 18 -12 -10 -16 -8 -21 11 -23 73
-48 128 -58 127 -7 -1 -23 -4 -36 -8z m26 -48 c-3 -14 1 -44 9 -66 8 -22 13
-41 12 -42 -7 -5 -47 -25 -51 -25 -9 0 6 125 16 131 5 4 6 12 3 18 -4 6 -2 11
5 11 7 0 9 -10 6 -27z m43 -67 c0 -12 -5 -7 -19 24 -11 24 -11 24 3 6 9 -11
16 -24 16 -30z m20 -38 c0 -5 5 -6 11 -2 8 4 8 0 0 -15 -11 -20 -30 -29 -32
-13 0 4 -2 14 -4 23 -1 9 4 16 11 16 8 0 14 -4 14 -9z m-114 -28 c0 -11 -4
-20 -8 -20 -10 0 -11 24 -1 33 9 9 9 10 9 -13z"/>
<path d="M3742 4690 c0 -14 2 -19 5 -12 2 6 2 18 0 25 -3 6 -5 1 -5 -13z"/>
<path d="M3726 4545 c-33 -63 -58 -117 -55 -119 2 -2 14 -9 26 -15 21 -11 24
-9 40 26 10 21 18 39 19 41 0 1 17 -5 37 -13 55 -23 92 -19 116 12 33 40 37
71 14 101 -19 26 -106 81 -128 82 -5 0 -37 -52 -69 -115z m82 71 c-10 -7 -18
-19 -18 -26 0 -7 -3 -11 -6 -7 -11 11 7 47 24 47 16 -1 16 -2 0 -14z m70 -68
c5 -28 -27 -50 -62 -42 -17 3 -33 8 -35 10 -2 1 5 21 15 43 l19 39 30 -17 c16
-9 31 -24 33 -33z m-111 1 c-9 -6 -17 -15 -17 -20 0 -6 4 -8 8 -5 5 3 9 -1 9
-9 0 -8 -4 -12 -9 -9 -4 3 -8 0 -8 -5 0 -6 -8 -11 -17 -11 -17 1 -17 1 -1 11
9 5 15 16 12 23 -6 15 25 51 35 41 3 -4 -2 -11 -12 -16z m141 -20 c-1 -17 -4
-25 -8 -18 -7 10 -2 49 5 49 2 0 3 -14 3 -31z m-21 -44 c-4 -8 -12 -15 -19
-15 -9 0 -8 3 2 10 8 5 11 10 7 10 -5 0 -5 5 -2 11 10 15 19 3 12 -16z m-82 5
c3 -6 -1 -7 -9 -4 -18 7 -21 14 -7 14 6 0 13 -4 16 -10z m-82 -25 c-3 -9 -8
-14 -10 -11 -3 3 -2 9 2 15 9 16 15 13 8 -4z"/>
<path d="M2052 4580 c-54 -33 -64 -87 -23 -124 19 -18 55 -12 44 8 -4 8 -2 7
7 -1 10 -9 9 -17 -8 -37 -23 -30 -19 -60 11 -81 61 -43 167 12 167 86 0 40
-26 69 -62 69 -16 0 -16 3 -6 20 11 17 10 25 -2 48 -21 36 -80 42 -128 12z
m99 -21 c19 -16 20 -18 4 -10 -34 17 -51 31 -39 31 7 0 22 -9 35 -21z m-14
-25 c10 -26 -11 -49 -43 -49 -23 0 -30 5 -32 24 -2 13 2 28 10 32 22 14 58 10
65 -7z m53 -89 c10 -12 9 -20 -4 -40 -25 -38 -76 -31 -76 11 0 38 55 59 80 29z
m40 0 c0 -8 -2 -15 -4 -15 -2 0 -6 7 -10 15 -3 8 -1 15 4 15 6 0 10 -7 10 -15z
m-5 -44 c3 -5 2 -12 -3 -15 -5 -3 -9 1 -9 9 0 17 3 19 12 6z m-130 -11 c-3 -5
-1 -10 4 -10 6 0 11 -8 11 -17 -1 -17 -2 -16 -15 1 -13 17 -12 36 1 36 3 0 2
-4 -1 -10z"/>
<path d="M2566 4525 c-9 -26 -7 -32 5 -12 6 10 9 21 6 23 -2 3 -7 -2 -11 -11z"/>
<path d="M3948 4424 l-77 -104 25 -17 c14 -8 26 -14 27 -12 2 2 21 29 44 59
22 30 44 66 48 80 7 24 6 24 -7 6 -10 -12 -17 -15 -22 -8 -6 11 38 52 58 52 6
0 4 5 -4 11 -12 8 -12 10 -1 7 16 -5 24 -38 9 -38 -5 0 -6 -10 -3 -22 4 -16 3
-19 -3 -9 -11 16 -20 -40 -23 -142 -2 -58 1 -70 20 -88 12 -12 24 -19 25 -18
50 65 156 209 156 212 0 3 -11 12 -24 21 -24 15 -25 15 -72 -54 -37 -54 -45
-73 -36 -82 9 -9 12 -9 12 3 1 16 50 80 50 64 0 -19 -51 -86 -61 -80 -5 4 -9
1 -9 -4 0 -22 -2 -26 -16 -34 -23 -13 -26 -4 -10 29 7 16 16 76 20 134 5 97 4
107 -14 123 -11 9 -24 17 -28 16 -4 0 -42 -48 -84 -105z m29 -29 c-4 -8 -11
-15 -17 -15 -6 0 -6 7 2 20 14 22 24 19 15 -5z m195 -22 c-6 -2 -9 -10 -6 -15
4 -7 2 -8 -5 -4 -13 9 -5 26 12 25 9 0 8 -2 -1 -6z m-236 -28 c-14 -14 -16
-14 -16 -2 0 9 6 17 13 20 19 7 21 -1 3 -18z"/>
<path d="M2910 4429 c-139 -8 -260 -30 -382 -70 -99 -32 -222 -87 -278 -123
-142 -92 -191 -127 -239 -171 -186 -166 -314 -347 -396 -560 -42 -110 -44
-115 -64 -204 -82 -349 -27 -734 150 -1040 l40 -70 43 19 c41 17 112 39 246
74 30 8 109 28 175 46 297 77 405 133 405 210 0 47 -57 90 -176 133 -210 76
-266 98 -314 122 -54 27 -140 82 -150 96 -3 3 -33 25 -68 47 -57 37 -116 57
-191 64 -24 3 -24 5 -22 77 11 325 146 640 378 881 240 250 546 396 910 432
221 22 441 -14 660 -108 95 -41 128 -39 37 2 -167 75 -367 129 -519 139 -44 3
-91 7 -105 9 -14 1 -77 -1 -140 -5z m-173 -45 c-3 -3 -12 -4 -19 -1 -8 3 -5 6
6 6 11 1 17 -2 13 -5z m-27 -14 c11 -8 7 -9 -14 -4 -20 5 -27 4 -22 -4 5 -8 1
-10 -9 -5 -13 5 -14 7 -3 14 17 11 30 11 48 -1z m-115 -18 l-20 -5 20 -8 c14
-6 11 -7 -12 -3 -26 4 -33 2 -33 -10 0 -15 -14 -20 -47 -19 -7 0 -11 -3 -10
-7 4 -14 -157 -92 -192 -93 -19 -1 -29 -3 -22 -5 6 -2 11 -11 11 -19 0 -14 -2
-14 -23 0 -21 13 -25 13 -52 -9 -17 -13 -25 -24 -18 -24 6 0 15 5 18 11 4 6
14 8 22 5 9 -4 11 -2 7 5 -4 7 -2 10 5 8 7 -3 11 -9 9 -14 -5 -18 -119 -96
-129 -89 -6 3 -9 -1 -7 -9 4 -18 -112 -138 -125 -130 -6 3 -7 1 -3 -6 4 -6 -3
-24 -15 -39 -14 -17 -20 -20 -15 -8 5 16 4 17 -9 6 -8 -7 -12 -16 -9 -21 5 -8
-34 -71 -48 -77 -5 -2 -8 -9 -8 -16 0 -7 -8 -20 -18 -30 -11 -9 -25 -34 -32
-56 -9 -27 -16 -36 -21 -28 -4 7 -3 16 4 21 8 6 8 7 -3 4 -10 -2 -14 -13 -12
-31 2 -16 0 -26 -6 -22 -5 3 -9 -5 -9 -17 -1 -41 -3 -48 -13 -42 -6 3 -10 -4
-10 -17 0 -19 -2 -20 -11 -8 -8 12 -9 10 -4 -8 4 -14 0 -37 -9 -57 -9 -18 -24
-64 -34 -102 -9 -37 -20 -70 -24 -73 -8 -6 -18 -99 -22 -212 -4 -94 6 -111 74
-120 49 -7 95 -23 110 -38 3 -3 19 -12 35 -20 38 -19 56 -36 47 -44 -3 -4 1
-4 11 0 16 6 25 -10 10 -19 -5 -2 -2 -2 5 0 24 6 37 -10 16 -19 -14 -6 -11 -7
9 -3 21 4 27 2 21 -6 -4 -7 -3 -9 4 -5 13 8 84 -33 76 -45 -3 -5 1 -7 8 -4 7
3 26 -6 42 -20 31 -26 41 -32 31 -15 -6 10 25 2 35 -9 6 -7 129 -47 173 -57
15 -3 27 -10 27 -15 0 -5 9 -9 20 -9 11 0 20 -5 20 -11 0 -5 8 -9 18 -8 36 3
52 -2 52 -17 0 -8 -4 -13 -8 -10 -5 3 -33 -4 -63 -15 -46 -18 -69 -20 -159
-16 -147 7 -258 53 -365 150 -11 10 -36 28 -55 40 -19 11 -37 24 -40 28 -14
18 -115 42 -197 47 -72 3 -90 7 -86 18 3 8 10 11 16 7 6 -3 7 -1 3 6 -4 6 -11
9 -16 6 -19 -12 0 289 20 309 5 5 5 16 -1 27 -6 12 -5 31 5 60 8 24 13 46 10
51 -3 4 0 8 5 8 6 0 11 9 11 21 0 32 30 127 44 142 7 7 16 24 19 39 4 15 14
33 22 42 18 18 20 30 3 20 -7 -4 -6 1 3 12 9 10 20 29 24 42 3 12 11 20 16 17
5 -4 9 3 9 14 0 21 15 37 23 24 2 -5 2 -3 1 4 -4 15 32 89 47 99 8 4 9 3 5 -4
-4 -7 -3 -12 3 -12 5 0 13 14 16 32 9 39 28 60 49 52 9 -3 16 -1 16 6 0 6 -4
8 -10 5 -27 -17 -5 17 35 53 25 22 45 45 45 50 0 18 20 24 36 11 12 -9 17 -10
27 0 9 10 8 11 -8 6 -20 -7 -20 -6 -1 9 11 9 15 16 10 16 -6 0 -15 -5 -22 -12
-7 -7 -12 -8 -12 -2 0 15 92 79 109 76 7 -2 10 1 6 7 -3 6 1 11 11 11 10 0 15
3 11 6 -6 7 23 44 36 44 4 0 34 17 65 38 69 46 91 56 116 53 10 -2 16 1 13 6
-6 9 121 69 160 77 10 1 29 8 43 14 14 6 32 10 40 10 8 0 6 -3 -5 -6z m-868
-1543 c28 -6 70 -23 92 -40 23 -16 45 -29 51 -29 5 0 10 -4 10 -8 0 -4 20 -21
45 -36 25 -16 45 -33 45 -37 0 -5 6 -9 14 -9 8 0 21 -7 29 -15 17 -16 121 -57
184 -72 36 -9 122 -5 269 11 11 1 31 10 44 19 20 14 25 14 37 1 8 -8 18 -14
23 -14 5 0 6 -7 3 -17 -4 -9 -2 -14 3 -11 5 4 10 -5 11 -19 l1 -26 -18 29
c-11 15 -17 31 -14 36 3 4 0 8 -5 8 -15 0 -14 -7 6 -40 14 -24 14 -31 4 -44
-8 -9 -20 -16 -27 -16 -8 0 -14 -7 -14 -15 0 -9 -6 -12 -17 -8 -10 4 -14 2
-10 -4 5 -7 0 -9 -13 -6 -11 3 -20 1 -20 -4 0 -12 -49 -35 -60 -28 -5 3 -11 1
-14 -4 -3 -5 -20 -14 -36 -20 -17 -5 -28 -6 -25 -1 7 11 -58 -12 -66 -24 -4
-5 -12 -5 -19 -1 -7 4 -15 3 -19 -2 -3 -6 -17 -13 -31 -17 l-25 -7 25 15 c41
25 9 17 -54 -13 -36 -17 -71 -27 -92 -25 -20 1 -35 -3 -38 -11 -5 -15 -75 -30
-126 -27 -27 1 -31 0 -15 -7 17 -7 13 -9 -22 -15 -24 -4 -45 -12 -49 -17 -10
-16 -49 -9 -62 11 -7 11 -8 20 -3 20 5 0 11 -7 15 -15 3 -8 16 -14 28 -14 21
1 21 2 3 6 -11 3 -24 11 -28 19 -4 8 -15 14 -24 14 -9 0 -13 6 -10 15 4 8 1
17 -5 21 -7 4 -8 3 -4 -4 4 -7 5 -12 2 -12 -9 0 -36 70 -36 92 0 10 -3 17 -8
14 -4 -2 -14 14 -23 37 -43 114 -52 144 -53 169 -1 14 -5 24 -10 21 -4 -3 -5
4 -1 16 4 13 2 21 -5 21 -7 0 -9 7 -6 16 3 8 2 23 -3 32 -5 9 -12 36 -16 59
-6 38 -5 42 17 45 31 5 102 -1 165 -13z"/>
<path d="M2388 4259 c-23 -25 -13 -24 19 1 14 11 19 20 12 19 -8 0 -22 -9 -31
-20z"/>
<path d="M2288 4223 c7 -3 16 -2 19 1 4 3 -2 6 -13 5 -11 0 -14 -3 -6 -6z"/>
<path d="M2146 4135 c-3 -8 -1 -15 4 -15 6 0 10 5 10 11 0 6 7 8 16 5 8 -3 12
-2 9 4 -9 15 -32 12 -39 -5z"/>
<path d="M2080 4080 c0 -5 5 -10 11 -10 5 0 7 5 4 10 -3 6 -8 10 -11 10 -2 0
-4 -4 -4 -10z"/>
<path d="M2046 4051 c-4 -5 4 -7 16 -4 23 4 23 4 3 -12 l-20 -17 20 4 c11 2
20 10 20 18 0 17 -30 26 -39 11z"/>
<path d="M2030 3985 c-7 -9 -8 -15 -2 -15 5 0 12 7 16 15 3 8 4 15 2 15 -2 0
-9 -7 -16 -15z"/>
<path d="M1830 3801 c0 -6 4 -13 10 -16 6 -3 7 1 4 9 -7 18 -14 21 -14 7z"/>
<path d="M1786 3773 c-6 -14 -5 -15 5 -6 7 7 10 15 7 18 -3 3 -9 -2 -12 -12z"/>
<path d="M1628 3462 c-3 -11 0 -19 7 -19 7 0 10 8 7 19 -2 10 -6 18 -7 18 -1
0 -5 -8 -7 -18z"/>
<path d="M1661 3464 c0 -11 3 -14 6 -6 3 7 2 16 -1 19 -3 4 -6 -2 -5 -13z"/>
<path d="M1571 3234 c0 -11 3 -14 6 -6 3 7 2 16 -1 19 -3 4 -6 -2 -5 -13z"/>
<path d="M1542 3015 c0 -16 2 -22 5 -12 2 9 2 23 0 30 -3 6 -5 -1 -5 -18z"/>
<path d="M2348 2653 c7 -3 16 -2 19 1 4 3 -2 6 -13 5 -11 0 -14 -3 -6 -6z"/>
<path d="M1550 2798 c0 -4 4 -8 9 -8 6 0 12 4 15 8 3 5 -1 9 -9 9 -8 0 -15 -4
-15 -9z"/>
<path d="M1621 2550 c0 -8 3 -21 7 -28 6 -9 12 -5 20 15 11 25 11 26 -2 10
-14 -18 -14 -18 -19 0 -3 12 -5 13 -6 3z"/>
<path d="M1630 2480 c0 -5 5 -10 11 -10 5 0 7 5 4 10 -3 6 -8 10 -11 10 -2 0
-4 -4 -4 -10z"/>
<path d="M2408 2433 c7 -3 16 -2 19 1 4 3 -2 6 -13 5 -11 0 -14 -3 -6 -6z"/>
<path d="M2268 2393 c7 -3 16 -2 19 1 4 3 -2 6 -13 5 -11 0 -14 -3 -6 -6z"/>
<path d="M1806 4411 c-13 -15 -15 -24 -7 -38 13 -25 97 -103 111 -103 14 0 13
6 -6 24 -8 9 -11 16 -6 16 16 0 35 -29 29 -44 -4 -10 0 -12 14 -9 15 4 19 0
19 -22 0 -24 -1 -25 -16 -11 -18 19 -28 21 -18 4 5 -8 2 -9 -10 -5 -10 4 -22
7 -27 7 -5 0 -9 5 -9 11 0 6 7 9 15 5 8 -3 15 -3 15 0 0 8 -52 25 -121 40 -37
8 -73 16 -80 19 -8 2 -24 -4 -37 -15 l-23 -19 87 -100 88 -101 23 21 22 21
-62 65 c-43 44 -63 59 -65 49 -3 -16 -22 -23 -22 -8 1 29 19 29 125 2 99 -26
112 -28 133 -14 12 8 22 17 22 20 0 5 -170 204 -174 204 -2 0 -11 -9 -20 -19z
m-65 -141 c10 0 19 -4 19 -9 0 -5 -8 -7 -19 -4 -10 3 -22 0 -25 -6 -4 -6 -12
-11 -17 -11 -6 0 -7 5 -4 10 3 6 1 10 -5 10 -6 0 -8 5 -5 11 4 6 14 8 22 5 8
-3 23 -6 34 -6z"/>
<path d="M2280 4356 c0 -2 7 -9 15 -16 13 -11 14 -10 9 4 -5 14 -24 23 -24 12z"/>
<path d="M3068 4353 c7 -3 16 -2 19 1 4 3 -2 6 -13 5 -11 0 -14 -3 -6 -6z"/>
<path d="M4212 4223 l-62 -126 22 -21 23 -22 62 28 c34 15 94 38 132 51 l70
24 -24 23 -25 23 -82 -35 c-56 -23 -87 -42 -95 -59 l-13 -24 0 23 c0 12 11 39
24 60 13 20 35 60 49 88 l26 51 -22 21 -22 21 -63 -126z m28 -1 c0 -5 -7 -17
-15 -28 -14 -18 -14 -17 -4 9 12 27 19 34 19 19z m-29 -75 c-10 -9 -11 -8 -5
6 3 10 9 15 12 12 3 -3 0 -11 -7 -18z m159 8 c-14 -17 -30 -20 -30 -4 0 5 4 8
9 4 5 -3 12 -1 16 5 3 5 9 10 12 10 3 0 0 -7 -7 -15z m-43 -21 c-3 -3 -12 -4
-19 -1 -8 3 -5 6 6 6 11 1 17 -2 13 -5z m-120 -33 c0 -11 -5 -17 -9 -15 -11 7
-10 34 1 34 6 0 9 -9 8 -19z"/>
<path d="M3843 4299 c-2 -23 3 -25 10 -4 4 8 3 16 -1 19 -4 3 -9 -4 -9 -15z"/>
<path d="M1582 4197 c-22 -24 -22 -24 -5 -95 9 -39 14 -74 10 -78 -3 -3 -25
10 -49 30 l-42 37 -18 -23 c-10 -13 -17 -26 -15 -29 1 -3 47 -42 102 -86 l100
-81 17 26 c16 25 16 26 -23 54 -21 15 -39 33 -39 38 0 6 -7 10 -17 10 -14 0
-14 -3 3 -22 10 -12 13 -18 5 -13 -11 6 -13 4 -8 -9 5 -12 -3 -8 -22 10 -17
15 -27 32 -24 38 4 5 0 7 -9 4 -9 -4 -15 0 -15 8 0 19 4 18 30 -8 12 -13 21
-21 20 -19 -8 13 22 28 50 25 145 -14 135 -15 157 17 l21 29 -38 0 c-21 0 -62
3 -90 6 -45 6 -53 10 -53 28 -1 12 -6 45 -13 74 l-13 53 -22 -24z m50 -143 c5
-7 4 -14 -4 -17 -9 -3 -14 6 -15 27 0 17 1 24 4 16 3 -8 10 -20 15 -26z m-116
-19 c3 -17 -12 -20 -21 -5 -7 12 4 34 13 25 3 -3 7 -12 8 -20z m131 -111 c-9
-9 -28 6 -21 18 4 6 10 6 17 -1 6 -6 8 -13 4 -17z"/>
<path d="M2074 4209 c-3 -6 -2 -15 3 -20 5 -5 9 -1 9 11 0 23 -2 24 -12 9z"/>
<path d="M1511 4174 c0 -11 3 -14 6 -6 3 7 2 16 -1 19 -3 4 -6 -2 -5 -13z"/>
<path d="M4435 4046 c-31 -66 -48 -90 -77 -108 -41 -25 -44 -34 -23 -61 13
-18 16 -18 59 12 39 27 56 32 135 38 l90 6 -17 23 c-18 25 -58 30 -121 18 -24
-5 -31 -11 -27 -23 4 -11 2 -10 -9 3 -11 14 -15 16 -15 5 0 -8 -15 -26 -33
-41 -23 -18 -34 -22 -34 -12 0 8 3 12 5 9 6 -6 52 43 52 56 0 5 7 9 16 7 11
-2 28 14 46 45 27 43 29 51 18 77 -7 17 -15 30 -19 30 -4 0 -24 -38 -46 -84z
m36 1 c-10 -9 -11 -8 -5 6 3 10 9 15 12 12 3 -3 0 -11 -7 -18z m-18 -32 c-3
-9 -8 -14 -10 -11 -3 3 -2 9 2 15 9 16 15 13 8 -4z"/>
<path d="M4670 4021 c0 -6 4 -13 10 -16 6 -3 7 1 4 9 -7 18 -14 21 -14 7z"/>
<path d="M1406 3984 c3 -10 -2 -28 -10 -39 -13 -17 -11 -25 15 -77 25 -49 36
-88 26 -88 -7 0 -79 39 -92 50 -10 8 -16 5 -28 -19 l-15 -29 114 -65 113 -64
17 25 c18 27 17 28 -37 57 -14 8 -33 24 -41 37 l-15 23 81 1 c49 1 82 6 84 13
2 6 11 18 19 27 8 8 14 16 12 18 -2 1 -40 -1 -84 -5 -44 -4 -83 -4 -86 0 -3 3
-17 33 -30 66 -23 61 -53 109 -43 69z m79 -172 c-7 -8 -35 7 -35 18 0 6 7 6
20 -2 10 -7 17 -14 15 -16z m-131 -28 c3 -8 2 -12 -4 -9 -6 3 -10 10 -10 16 0
14 7 11 14 -7z m24 -9 c-3 -3 -9 2 -12 12 -6 14 -5 15 5 6 7 -7 10 -15 7 -18z
m69 -18 c7 0 25 -14 40 -30 l28 -29 -38 16 c-21 8 -45 22 -53 31 -9 8 -20 13
-25 10 -5 -4 -9 -1 -9 5 0 7 8 9 23 4 12 -4 28 -7 34 -7z"/>
<path d="M1450 3736 c0 -2 7 -7 16 -10 8 -3 12 -2 9 4 -6 10 -25 14 -25 6z"/>
<path d="M3863 3879 c2 -20 -2 -20 -188 -20 l-190 1 -80 -77 c-44 -43 -136
-131 -205 -196 l-124 -119 24 -19 c14 -10 30 -18 36 -16 9 2 191 168 328 300
l39 38 51 -50 c28 -27 101 -97 161 -155 l110 -106 310 3 c223 1 310 5 310 13
0 7 -81 96 -179 198 -134 139 -185 186 -200 184 -15 -2 -22 3 -24 20 -3 21 -8
22 -93 22 -84 0 -89 -1 -86 -21z m188 -42 c35 -14 40 -19 34 -39 -7 -23 -7
-23 9 -3 15 19 16 19 9 1 -5 -16 -3 -18 11 -13 10 4 15 3 11 -3 -3 -5 5 -15
19 -22 24 -10 30 -20 27 -40 0 -5 5 -8 13 -8 8 0 16 -7 20 -15 3 -8 9 -14 13
-13 13 4 64 -49 67 -68 2 -10 9 -20 17 -22 11 -3 11 -1 -1 7 -8 6 -11 11 -6
11 14 0 57 -51 51 -61 -4 -5 2 -6 12 -2 16 6 17 5 3 -12 -14 -17 -13 -18 4
-12 13 5 17 3 13 -7 -4 -10 -1 -13 7 -10 7 3 18 -2 25 -9 10 -13 -29 -14 -290
-12 -259 3 -303 5 -311 19 -18 33 -60 76 -69 71 -5 -4 -6 2 -2 11 4 12 3 15
-5 10 -14 -9 -140 115 -134 132 2 8 -3 10 -15 5 -10 -3 -15 -3 -11 2 7 7 -54
55 -71 55 -4 0 -18 -11 -31 -25 -12 -13 -27 -22 -31 -19 -5 3 -9 1 -9 -5 0 -6
-10 -19 -22 -30 -15 -15 -25 -18 -34 -10 -8 7 -14 7 -19 -1 -3 -5 0 -10 7 -10
7 0 1 -11 -14 -24 -15 -12 -25 -26 -23 -30 3 -3 2 -4 -1 -2 -10 8 -54 -37 -47
-48 4 -6 -1 -5 -10 3 -19 15 -14 31 9 31 9 0 12 5 8 13 -4 6 -3 9 1 4 10 -8
67 42 60 53 -6 9 59 60 75 60 7 0 10 7 7 15 -9 22 10 28 23 8 11 -17 11 -17 5
1 -3 12 2 26 15 38 19 18 40 20 208 24 212 4 212 4 212 17 0 5 7 6 16 3 8 -3
12 -2 9 4 -3 6 3 10 14 10 12 0 21 -4 21 -10 0 -5 12 -9 28 -9 27 2 27 2 2 7
l-25 5 25 7 c16 4 26 2 28 -6 2 -6 21 -18 43 -27z m-800 -254 c8 -9 9 -14 3
-10 -7 4 -17 0 -24 -8 -7 -8 -9 -15 -6 -15 4 0 1 -6 -6 -14 -7 -7 -19 -11 -27
-8 -9 3 -12 1 -7 -6 3 -6 -3 -14 -15 -17 -17 -6 -19 -9 -8 -17 12 -8 12 -9 0
-6 -22 6 -25 28 -5 28 9 0 15 3 11 6 -8 8 25 44 35 38 4 -3 13 6 20 20 13 31
12 30 29 9z m-93 -119 c2 -1 -4 -4 -13 -8 -11 -4 -14 -2 -9 6 5 7 2 9 -9 5
-11 -4 -14 -2 -10 9 4 12 8 12 22 2 9 -7 17 -13 19 -14z"/>
<path d="M3502 3816 c7 -8 15 -12 17 -11 5 6 -10 25 -20 25 -5 0 -4 -6 3 -14z"/>
<path d="M3390 3720 c-9 -6 -10 -10 -3 -10 6 0 15 5 18 10 8 12 4 12 -15 0z"/>
<path d="M3650 3670 c0 -5 5 -10 11 -10 5 0 7 5 4 10 -3 6 -8 10 -11 10 -2 0
-4 -4 -4 -10z"/>
<path d="M4215 3669 c-4 -6 -5 -12 -2 -15 2 -3 7 2 10 11 7 17 1 20 -8 4z"/>
<path d="M3780 3580 c0 -5 5 -10 11 -10 5 0 7 5 4 10 -3 6 -8 10 -11 10 -2 0
-4 -4 -4 -10z"/>
<path d="M3825 3511 c-3 -5 -2 -12 3 -15 5 -3 9 1 9 9 0 17 -3 19 -12 6z"/>
<path d="M4148 3503 c7 -3 16 -2 19 1 4 3 -2 6 -13 5 -11 0 -14 -3 -6 -6z"/>
<path d="M4524 3821 c-111 -56 -119 -64 -92 -98 6 -8 15 -9 26 -3 10 5 36 18
59 30 l43 20 -9 -23 c-5 -14 -22 -47 -37 -74 -26 -45 -27 -52 -15 -81 l13 -32
39 65 c22 35 39 69 39 74 0 14 12 13 85 -4 33 -8 63 -15 68 -15 14 0 7 17 -16
42 -17 18 -38 27 -78 32 -84 11 -91 21 -33 48 27 12 50 23 52 24 5 3 -21 54
-27 53 -3 -1 -56 -27 -117 -58z m96 9 c0 -5 -2 -10 -4 -10 -3 0 -8 5 -11 10
-3 6 -1 10 4 10 6 0 11 -4 11 -10z m-33 -17 c-11 -3 -27 -13 -38 -24 -11 -11
-25 -16 -35 -12 -12 4 -13 8 -3 13 7 5 18 6 24 4 7 -3 15 2 18 10 4 9 17 15
29 15 19 -1 19 -2 5 -6z m-82 -51 c-3 -3 -11 0 -18 7 -9 10 -8 11 6 5 10 -3
15 -9 12 -12z m85 -27 c0 -8 -8 -15 -17 -14 -11 0 -13 3 -5 6 6 2 10 9 6 14
-3 5 0 9 5 9 6 0 11 -7 11 -15z m97 -11 c-3 -3 -12 -4 -19 -1 -8 3 -5 6 6 6
11 1 17 -2 13 -5z m-133 -55 c-3 -5 -10 -7 -15 -3 -5 3 -7 10 -3 15 3 5 10 7
15 3 5 -3 7 -10 3 -15z m-21 -40 c-8 -8 -13 -7 -18 2 -6 8 -4 10 5 4 10 -6 12
-4 6 11 -6 15 -5 17 5 7 9 -10 10 -16 2 -24z"/>
<path d="M3467 3677 c-15 -16 -24 -33 -21 -39 5 -7 2 -8 -5 -4 -8 5 -30 -10
-59 -38 -26 -25 -73 -70 -105 -100 l-57 -54 1 -171 c1 -121 4 -171 13 -171 8
0 11 47 10 167 l-2 168 64 62 c36 35 67 63 69 63 9 0 45 40 45 49 0 6 5 13 12
17 8 5 9 1 4 -12 -4 -10 10 0 30 23 34 41 60 50 47 18 -3 -11 -1 -13 10 -10 9
4 39 -19 83 -65 38 -40 75 -77 82 -83 7 -7 22 -20 33 -29 10 -10 24 -18 30
-18 5 0 7 -4 4 -10 -3 -5 -1 -10 5 -10 7 0 9 -8 5 -19 -3 -11 -1 -22 4 -26 7
-3 8 0 5 9 -4 11 0 16 10 16 14 0 16 -20 18 -155 0 -85 1 -160 2 -166 1 -7
-99 -10 -314 -10 l-315 1 3 45 c2 25 1 45 -2 45 -4 0 -46 -9 -96 -20 -159 -35
-270 -87 -270 -126 0 -17 53 -48 115 -67 28 -9 115 -28 195 -42 505 -89 664
-138 844 -260 167 -112 246 -221 254 -351 4 -65 1 -80 -22 -127 -56 -116 -213
-220 -481 -320 -38 -15 -133 -49 -210 -77 -147 -54 -296 -124 -355 -167 -44
-33 -110 -95 -110 -104 0 -14 219 16 340 46 259 65 459 177 658 369 164 159
267 304 346 491 86 201 133 490 110 682 l-7 51 -83 13 -84 12 0 124 0 123
-261 0 -261 0 -87 84 c-47 47 -110 108 -139 135 -29 28 -51 53 -50 57 8 20
-31 6 -55 -19z m603 -280 c102 1 194 0 205 -3 18 -5 20 -13 20 -107 0 -82 3
-105 17 -119 9 -9 13 -19 10 -23 -4 -4 2 -5 13 -3 13 2 19 -2 17 -11 -2 -11 0
-12 10 -4 7 7 33 9 61 6 l47 -6 0 -68 0 -68 -47 -5 c-148 -18 -202 -29 -243
-47 -70 -33 -140 -82 -140 -99 1 -13 2 -13 13 0 19 24 127 85 182 104 28 10
94 20 149 23 l99 6 -8 -69 c-4 -38 -8 -77 -7 -86 1 -19 -4 -20 -55 -20 -43 0
-43 -13 -1 -16 44 -4 49 -11 41 -57 -5 -32 -8 -36 -15 -20 -6 15 -7 14 -3 -7
7 -38 -5 -109 -18 -101 -6 4 -8 -2 -5 -15 4 -12 2 -24 -3 -27 -4 -3 -5 -13 -2
-22 5 -12 3 -14 -7 -8 -8 5 -11 4 -7 -2 4 -6 1 -23 -7 -38 -9 -17 -16 -22 -19
-13 -3 7 -3 -2 0 -19 4 -23 2 -33 -7 -33 -7 0 -10 -7 -6 -16 4 -10 2 -13 -6
-8 -8 5 -9 2 -5 -10 4 -9 3 -15 -2 -12 -5 3 -15 -14 -22 -39 -7 -25 -24 -56
-37 -70 -12 -14 -19 -25 -15 -25 4 0 2 -5 -5 -12 -9 -9 -15 -9 -24 1 -8 9 -8
11 -2 8 9 -5 11 14 10 68 -1 53 -5 76 -15 80 -7 3 -10 12 -7 20 3 8 1 15 -5
15 -6 0 -5 9 2 23 12 21 11 21 -6 7 -17 -14 -18 -13 -13 8 4 12 3 20 -1 18 -4
-3 -15 4 -25 16 -15 17 -16 22 -5 29 11 7 9 9 -6 9 -19 0 -40 17 -58 47 -4 6
5 24 21 41 49 54 64 74 58 80 -6 5 -34 -22 -76 -76 -27 -34 -46 -42 -36 -15 4
10 4 14 0 10 -12 -12 -64 26 -65 48 0 11 -3 14 -6 8 -2 -7 -9 -13 -14 -13 -6
0 -8 4 -4 9 3 5 1 12 -5 16 -6 4 -7 12 -3 18 4 7 -1 6 -10 -2 -46 -37 -24 27
28 83 20 21 34 41 30 44 -6 6 -55 -38 -55 -50 0 -5 -5 -14 -10 -21 -6 -7 -16
-20 -23 -30 -12 -18 -16 -17 -77 14 -36 17 -73 39 -84 48 -10 9 -21 15 -25 14
-12 -4 -82 18 -77 25 2 4 -9 8 -25 9 -16 1 -43 3 -59 4 -17 1 -29 7 -27 13 3
7 -12 12 -37 12 -57 2 -145 21 -162 35 -7 6 -21 8 -30 5 -9 -4 -23 -1 -30 5
-9 7 -14 8 -14 1 0 -5 -9 -8 -20 -5 -11 3 -20 9 -20 14 0 4 -16 5 -35 2 -19
-3 -35 -2 -35 3 0 5 -18 10 -40 11 -73 4 -286 59 -297 76 -4 7 1 8 13 3 15 -6
17 -5 7 5 -7 7 -13 18 -13 23 0 6 4 5 9 -2 6 -10 11 -9 22 4 12 16 12 17 -1
10 -8 -4 -6 0 5 9 12 10 29 14 43 10 15 -4 21 -2 17 5 -3 6 3 10 15 10 13 0
19 4 14 11 -4 8 4 9 27 4 24 -4 30 -3 20 4 -11 7 -7 11 20 15 19 3 46 4 62 2
15 -2 27 1 27 7 0 5 6 4 14 -2 8 -7 12 -19 10 -29 -10 -43 -3 -44 335 -45 177
0 324 2 327 6 3 3 5 75 5 160 -1 85 1 161 5 170 4 11 13 13 32 8 15 -4 110 -6
212 -4z m175 -1197 c3 -5 1 -10 -4 -10 -6 0 -11 5 -11 10 0 6 2 10 4 10 3 0 8
-4 11 -10z m-160 -200 c-21 -22 -45 -40 -52 -40 -7 0 -12 -3 -12 -7 4 -27 -1
-33 -21 -21 -16 11 -23 10 -37 -6 -17 -18 -17 -18 4 -7 26 13 33 14 33 2 0 -5
-9 -13 -21 -16 -11 -4 -18 -9 -15 -13 9 -8 -25 -42 -41 -42 -8 0 -11 -5 -7
-12 4 -7 3 -8 -5 -4 -14 9 -43 -12 -35 -25 3 -5 -2 -6 -10 -3 -9 4 -18 -1 -22
-10 -3 -9 -12 -16 -20 -16 -8 0 -14 -4 -14 -9 0 -14 -68 -53 -80 -46 -6 4 -9
1 -8 -7 2 -8 -4 -12 -16 -10 -10 2 -15 -1 -12 -6 8 -13 -20 -23 -41 -15 -11 5
-14 3 -8 -6 6 -10 2 -11 -15 -6 -15 5 -20 4 -16 -3 4 -6 -2 -16 -13 -21 -24
-13 -34 -14 -27 -2 4 5 -8 4 -24 -2 -26 -10 -28 -13 -13 -19 13 -5 9 -7 -14
-7 -18 -1 -33 -6 -33 -12 0 -6 -9 -8 -21 -4 -16 5 -19 4 -14 -5 5 -8 4 -11 -2
-7 -6 4 -29 0 -52 -8 -23 -8 -45 -15 -49 -15 -4 0 -17 -3 -29 -6 -12 -3 -45 1
-72 9 -54 16 -69 9 -23 -11 l27 -12 -27 4 c-17 2 -25 -1 -21 -7 4 -6 0 -8 -10
-4 -9 3 -19 2 -22 -3 -3 -5 -19 -8 -34 -7 -24 2 -27 5 -18 17 22 31 70 70 78
64 5 -3 9 0 9 6 0 6 6 10 13 8 15 -3 87 42 87 55 0 5 9 5 20 2 11 -3 20 -2 20
3 0 5 12 8 28 5 22 -3 24 -2 7 5 -19 9 -19 9 2 16 13 4 28 4 34 0 7 -4 9 -3 6
3 -4 6 6 13 23 17 43 8 44 8 58 23 8 7 18 10 23 7 6 -3 18 1 28 10 10 9 22 16
27 15 5 -1 27 6 48 15 32 14 40 15 47 4 7 -10 9 -9 9 5 0 9 6 17 13 18 25 1
44 8 121 44 44 21 85 38 90 39 6 1 22 9 36 19 13 9 33 17 43 17 10 0 15 5 12
10 -4 6 -3 10 2 9 20 -3 34 2 28 11 -4 6 1 7 11 3 12 -4 15 -3 10 6 -4 6 -4
10 1 9 5 -2 19 7 33 20 40 37 37 25 -5 -18z m-805 -335 c0 -2 -10 -9 -22 -15
-22 -11 -22 -10 -4 4 21 17 26 19 26 11z"/>
<path d="M3993 3368 c-4 -7 -8 -16 -9 -20 -1 -5 -2 -9 -3 -10 -2 -3 -1 -160 1
-255 0 -26 42 -38 98 -29 19 2 42 0 53 -6 14 -7 17 -7 13 1 -4 6 0 11 8 11 18
0 18 3 18 172 0 153 3 148 -92 148 -52 0 -82 -4 -87 -12z m158 -153 c-1 -76
-3 -140 -4 -140 -1 0 -35 1 -74 3 l-73 4 0 132 c0 73 3 136 7 140 4 4 38 5 76
4 l69 -3 -1 -140z"/>
<path d="M4257 2753 c-85 -45 -80 -56 6 -14 35 17 73 31 85 31 12 0 22 5 22
10 0 20 -46 9 -113 -27z"/>
<path d="M4040 2640 c0 -5 5 -10 11 -10 5 0 7 5 4 10 -3 6 -8 10 -11 10 -2 0
-4 -4 -4 -10z"/>
<path d="M3830 1870 c-8 -5 -10 -10 -5 -10 6 0 17 5 25 10 8 5 11 10 5 10 -5
0 -17 -5 -25 -10z"/>
<path d="M3720 1750 c-9 -6 -10 -10 -3 -10 6 0 15 5 18 10 8 12 4 12 -15 0z"/>
<path d="M3525 1660 c-3 -6 1 -7 9 -4 18 7 21 14 7 14 -6 0 -13 -4 -16 -10z"/>
<path d="M3526 3463 c-3 -4 -33 -7 -66 -8 -33 -1 -62 -4 -66 -8 -11 -10 -6
-189 5 -200 10 -10 165 -18 189 -9 34 12 3 17 -85 14 l-98 -4 0 96 0 96 93 0
92 0 0 -85 c0 -50 4 -85 10 -85 13 0 13 130 0 164 -6 17 -14 24 -25 20 -8 -4
-21 -1 -29 5 -7 6 -16 8 -20 4z"/>
<path d="M3490 3382 c0 -26 -3 -29 -25 -24 -18 3 -25 0 -25 -10 0 -11 8 -14
26 -10 25 4 26 3 22 -22 -4 -17 -1 -26 8 -26 7 0 14 10 16 23 2 14 11 23 26
25 26 4 20 22 -9 22 -12 0 -19 7 -19 19 0 11 -4 23 -10 26 -6 4 -10 -6 -10
-23z"/>
<path d="M4716 3284 c-3 -9 -6 -23 -6 -33 0 -34 -53 -80 -110 -95 -30 -8 -53
-15 -50 -16 3 -1 14 -3 25 -4 85 -11 119 -35 135 -96 13 -47 30 -53 30 -9 0
20 9 40 28 59 28 28 97 54 114 44 4 -3 8 -1 8 4 0 4 -22 14 -49 21 -58 15 -85
41 -100 99 -13 46 -16 50 -25 26z m44 -107 c0 -5 -4 -5 -10 -2 -5 3 -10 1 -10
-5 0 -7 8 -9 19 -5 25 7 52 -23 31 -35 -25 -14 -57 -44 -62 -60 -4 -10 -8 -6
-13 13 -5 17 -16 29 -31 33 -13 3 -24 10 -24 15 0 5 -8 9 -17 9 -11 0 -5 7 15
17 18 8 40 29 50 45 l17 28 17 -22 c10 -13 18 -27 18 -31z"/>
<path d="M4716 3185 c-9 -26 -7 -32 5 -12 6 10 9 21 6 23 -2 3 -7 -2 -11 -11z"/>
<path d="M4680 3149 c0 -5 5 -7 10 -4 6 3 10 8 10 11 0 2 -4 4 -10 4 -5 0 -10
-5 -10 -11z"/>
<path d="M1260 3239 c-16 -49 -50 -77 -102 -85 -49 -8 -49 -20 0 -28 51 -8 87
-41 103 -93 13 -44 29 -49 29 -8 0 41 55 93 106 101 56 8 56 20 1 28 -55 8
-96 44 -104 90 -7 47 -17 45 -33 -5z m31 -39 c5 0 9 -7 9 -15 0 -8 9 -19 20
-25 25 -13 26 -37 2 -44 -9 -3 -25 -18 -34 -33 -10 -16 -18 -22 -18 -15 0 7
-7 20 -15 29 -8 8 -12 19 -9 25 4 6 2 8 -4 5 -13 -9 -42 2 -42 15 0 6 6 8 13
5 8 -3 20 -1 28 4 12 7 12 9 0 9 -11 0 -11 3 -1 15 7 8 18 15 25 15 7 0 12 8
10 18 -1 9 0 11 2 5 3 -7 9 -13 14 -13z"/>
<path d="M1300 3140 c0 -5 5 -10 11 -10 5 0 7 5 4 10 -3 6 -8 10 -11 10 -2 0
-4 -4 -4 -10z"/>
<path d="M3752 3225 c0 -16 2 -22 5 -12 2 9 2 23 0 30 -3 6 -5 -1 -5 -18z"/>
<path d="M2880 3159 c-245 -22 -385 -51 -490 -100 -112 -52 -155 -114 -127
-181 27 -62 96 -102 268 -153 196 -58 319 -117 319 -154 0 -5 5 -11 11 -13 5
-2 13 -22 16 -44 18 -133 -130 -222 -595 -358 -105 -31 -201 -60 -214 -65 -13
-5 -60 -24 -106 -42 l-84 -32 83 -83 82 -83 31 26 c78 66 218 119 841 320 233
75 387 159 425 233 59 113 -77 202 -466 305 -72 20 -165 46 -205 60 -47 16
-67 19 -55 10 11 -8 27 -15 35 -15 14 0 14 -2 1 -11 -12 -8 -11 -9 6 -4 12 3
45 -4 73 -15 29 -11 62 -20 74 -21 21 0 21 -1 2 -10 -16 -8 -15 -8 8 -4 15 3
33 2 40 -2 7 -4 14 -8 17 -9 3 0 23 -4 45 -9 22 -5 42 -10 45 -10 46 -9 70
-18 70 -26 0 -5 3 -8 8 -7 16 4 72 -14 72 -23 0 -6 4 -8 9 -4 14 8 136 -52
169 -82 15 -14 26 -32 24 -40 -2 -9 1 -12 8 -8 9 5 10 1 5 -14 -4 -12 -2 -21
4 -21 19 0 12 -19 -22 -53 -17 -19 -38 -32 -45 -29 -7 2 -10 -2 -6 -11 3 -10
-4 -18 -23 -25 -16 -5 -36 -16 -44 -24 -18 -18 -221 -100 -253 -102 -13 0 -22
-5 -18 -10 3 -5 -5 -7 -16 -4 -12 4 -22 3 -22 -1 0 -4 -28 -15 -62 -25 -35
-10 -87 -27 -116 -37 -30 -11 -58 -16 -64 -13 -7 4 -8 2 -4 -4 4 -7 3 -12 -3
-12 -5 0 -17 -3 -27 -7 -13 -5 -15 -3 -9 8 7 11 6 12 -6 2 -8 -6 -52 -23 -99
-38 -47 -15 -89 -31 -95 -35 -5 -4 -25 -11 -44 -15 -19 -4 -62 -22 -97 -40
-35 -19 -64 -30 -64 -25 0 5 10 12 22 16 19 6 20 7 4 16 -10 5 -20 7 -23 4 -4
-3 -1 -6 5 -6 6 0 -3 -13 -20 -30 -16 -16 -36 -30 -44 -30 -8 0 -14 -5 -14
-11 0 -5 -5 -7 -12 -3 -6 4 -16 0 -22 -8 -17 -23 -46 -29 -67 -15 -10 8 -16
16 -13 20 3 3 -4 10 -15 17 -12 6 -21 7 -21 3 0 -13 -20 21 -20 35 0 8 5 10
13 6 6 -4 8 -3 4 1 -11 13 -38 15 -31 3 4 -7 2 -8 -4 -4 -16 10 -15 26 2 26 7
0 19 7 26 14 6 8 36 20 65 27 32 7 52 16 48 22 -3 6 -1 7 6 3 6 -4 18 -2 26 4
8 6 18 9 24 6 5 -4 15 -1 23 6 7 7 24 14 38 16 41 4 47 6 123 34 15 6 30 8 34
5 3 -3 12 0 20 8 8 8 27 15 43 15 16 0 30 6 33 13 3 9 9 9 24 0 13 -7 24 -8
34 -1 11 8 10 9 -3 4 -10 -3 -18 -1 -18 4 0 5 17 12 38 16 20 3 52 15 69 26
18 11 38 16 44 12 8 -5 9 -3 4 6 -6 9 -2 10 15 5 14 -4 20 -3 16 3 -3 5 1 13
10 16 22 8 26 8 19 -4 -3 -6 1 -7 9 -4 9 3 14 10 11 14 -3 4 6 11 20 14 14 4
25 11 25 16 0 6 6 10 14 10 8 0 16 6 18 12 3 7 13 13 24 13 10 0 18 6 17 13
-2 6 2 11 9 10 7 -2 12 4 13 12 1 8 6 14 13 12 7 -1 11 1 11 5 -3 20 2 34 10
29 5 -4 7 2 4 13 -3 10 0 21 5 25 11 6 -1 74 -18 106 -5 10 -6 20 -3 24 9 8
34 -14 27 -25 -3 -5 2 -6 11 -3 11 5 18 0 22 -15 3 -11 9 -21 13 -21 14 0 17
-32 7 -75 -9 -43 -63 -109 -83 -101 -15 6 -49 -30 -36 -38 18 -11 106 58 130
102 30 54 24 98 -20 148 -35 40 -112 88 -130 81 -14 -5 -68 23 -68 34 0 3 -19
9 -42 13 -23 4 -48 12 -56 18 -7 7 -21 13 -30 14 -30 3 -115 25 -126 32 -6 3
-19 8 -30 9 -29 5 -142 61 -156 78 -10 12 -10 18 1 33 13 15 12 16 -3 3 -16
-12 -19 -10 -28 13 -12 32 -1 64 31 91 36 31 85 55 94 47 5 -4 5 -2 2 4 -4 7
11 16 41 24 26 6 55 16 65 21 10 5 22 7 27 4 6 -4 10 -2 10 3 0 5 10 8 23 8
12 -1 27 2 34 6 6 5 33 11 60 12 l48 4 -33 -14 c-18 -8 -37 -12 -43 -9 -5 4
-9 2 -9 -3 0 -12 -50 -45 -67 -45 -6 0 -11 -3 -11 -6 1 -3 -4 -18 -12 -33 -15
-32 0 -82 28 -93 14 -5 14 -7 2 -16 -11 -8 -9 -9 9 -4 17 5 21 4 16 -5 -4 -7
-1 -11 6 -9 28 3 40 -1 33 -13 -4 -7 -4 -10 0 -6 4 3 29 0 55 -8 25 -7 67 -16
91 -18 78 -9 204 -28 220 -33 8 -3 22 -7 30 -8 99 -13 126 -18 135 -25 6 -4
34 -10 64 -14 30 -4 70 -14 89 -22 19 -8 43 -14 54 -14 10 0 16 -4 13 -10 -3
-5 1 -10 11 -10 9 0 34 -5 56 -12 39 -11 39 -12 16 -25 -17 -11 -18 -12 -3 -7
11 4 29 7 40 7 29 -1 136 -66 131 -79 -3 -7 3 -10 14 -7 10 3 21 0 24 -6 5 -7
0 -9 -11 -5 -15 5 -15 4 -3 -4 8 -6 18 -8 23 -5 5 3 17 -4 28 -15 11 -12 15
-23 9 -27 -6 -3 -10 -12 -10 -18 0 -7 4 -6 10 3 8 13 11 12 25 -5 9 -11 13
-14 9 -6 -5 10 -3 12 5 7 7 -5 10 -15 6 -24 -3 -9 -3 -13 1 -9 16 16 64 -96
64 -150 0 -31 -34 -104 -63 -135 -14 -15 -22 -30 -18 -34 3 -4 -2 -4 -12 -1
-10 4 -16 3 -12 -3 7 -12 -65 -61 -78 -53 -6 3 -7 2 -4 -4 8 -12 -101 -65
-116 -57 -7 4 -9 3 -4 -1 11 -13 -109 -76 -153 -80 -22 -2 -47 -9 -57 -15 -16
-10 -15 -10 5 -5 33 9 27 -1 -8 -14 -23 -8 -29 -7 -24 1 4 7 -7 2 -24 -11 -22
-15 -39 -20 -54 -16 -16 4 -19 3 -10 -3 14 -10 -31 -35 -110 -63 -21 -7 -38
-17 -38 -21 0 -4 -4 -8 -9 -8 -8 0 -20 -4 -66 -21 -5 -2 -23 -17 -40 -32 -16
-16 -43 -31 -58 -34 -21 -4 -25 -8 -15 -14 11 -7 10 -9 -1 -9 -8 0 -23 -8 -34
-17 -11 -10 -17 -13 -14 -7 9 16 -19 39 -28 24 -4 -6 -3 -10 2 -9 20 3 23 -2
12 -22 -9 -17 -8 -20 2 -14 8 5 10 4 5 -3 -4 -7 -14 -12 -22 -12 -8 0 -13 -3
-12 -7 4 -13 -26 -51 -42 -53 -8 -1 -27 -2 -42 -1 -21 1 -25 5 -21 20 3 13 11
18 21 14 13 -4 14 -2 4 4 -23 17 152 151 188 145 11 -2 11 0 -2 8 -19 12 -64
-11 -138 -69 -46 -37 -119 -111 -120 -122 0 -4 27 -12 60 -19 l59 -13 28 34
c103 123 246 211 513 319 157 63 337 152 408 202 73 52 136 123 153 175 16 51
5 135 -24 186 -103 173 -349 295 -727 362 -80 14 -204 37 -277 49 -278 50
-336 126 -162 212 56 28 133 48 349 92 l45 10 -40 -1 c-22 0 -78 -3 -125 -8z
m-5 -548 c10 -17 -12 -21 -25 -6 -10 12 -10 15 3 15 9 0 18 -4 22 -9z m-5
-275 c0 -2 -7 -7 -16 -10 -8 -3 -12 -2 -9 4 6 10 25 14 25 6z"/>
<path d="M2380 2948 c-11 -23 -10 -33 4 -63 9 -19 14 -40 10 -47 -4 -7 -3 -8
4 -4 7 4 12 1 12 -6 0 -9 3 -9 10 2 9 14 11 13 14 -9 0 -5 5 -13 10 -18 6 -5
6 -2 1 6 -6 11 -4 13 9 8 10 -4 30 -10 44 -13 18 -4 13 1 -14 14 -23 11 -45
25 -49 32 -6 9 -10 9 -17 -1 -8 -11 -9 -11 -5 1 3 9 -3 32 -13 52 -11 23 -14
38 -7 41 5 1 8 10 5 18 -4 10 -9 6 -18 -13z"/>
<path d="M2417 2963 c-27 -26 30 -115 83 -128 19 -4 16 0 -12 17 -37 23 -75
89 -63 109 7 10 1 12 -8 2z"/>
<path d="M2461 2944 c0 -11 3 -14 6 -6 3 7 2 16 -1 19 -3 4 -6 -2 -5 -13z"/>
<path d="M2450 2908 c0 -9 5 -20 10 -23 13 -8 13 5 0 25 -8 13 -10 13 -10 -2z"/>
<path d="M2668 2843 c7 -3 16 -2 19 1 4 3 -2 6 -13 5 -11 0 -14 -3 -6 -6z"/>
<path d="M2636 2830 c10 -10 121 -39 349 -94 298 -71 411 -128 450 -229 13
-36 14 -47 3 -78 -38 -104 -187 -193 -498 -294 -526 -171 -631 -212 -769 -303
l-54 -36 28 -22 c15 -12 61 -41 101 -64 l74 -42 53 48 c59 54 160 116 246 152
58 25 281 102 481 167 63 20 138 49 165 63 41 21 47 26 31 32 -12 4 -16 9 -9
13 6 4 19 4 30 0 10 -3 15 -3 11 2 -10 11 -59 15 -52 4 3 -5 -2 -9 -10 -9 -8
0 -17 -4 -20 -9 -4 -5 4 -7 16 -4 23 4 23 4 3 -11 -11 -9 -25 -14 -33 -11 -7
3 -10 0 -7 -6 4 -6 1 -9 -6 -8 -8 2 -24 -2 -37 -9 -12 -7 -26 -11 -31 -8 -4 3
-26 -3 -48 -14 -22 -10 -62 -24 -89 -31 -27 -6 -53 -16 -58 -20 -6 -5 -17 -9
-25 -9 -9 0 -29 -7 -45 -15 -16 -9 -36 -13 -43 -10 -8 2 -12 1 -9 -4 3 -4 -11
-8 -32 -9 -20 -1 -38 -6 -40 -12 -2 -5 -10 -10 -17 -10 -7 0 -26 -6 -42 -14
-39 -20 -113 -52 -142 -61 -39 -12 -82 -41 -73 -50 4 -4 -1 -5 -11 -2 -12 5
-16 3 -11 -5 5 -8 2 -9 -9 -5 -10 4 -16 2 -14 -6 1 -7 -5 -12 -14 -12 -9 0
-30 -15 -46 -34 -20 -21 -36 -31 -44 -26 -7 5 -10 4 -6 -2 4 -6 -1 -17 -10
-24 -14 -12 -16 -12 -8 0 6 10 4 12 -4 6 -8 -4 -30 5 -56 24 -24 17 -46 31
-50 31 -3 0 -15 9 -26 19 l-21 19 54 37 c37 24 61 34 74 29 14 -4 16 -3 5 4
-11 8 -9 11 10 17 29 8 92 38 99 46 6 7 49 23 65 24 6 1 20 7 33 14 12 6 33 9
45 6 17 -5 19 -4 7 4 -12 9 -10 11 11 11 14 0 29 4 35 9 5 6 20 12 34 14 14 3
38 10 54 16 16 6 38 9 50 6 11 -2 15 -2 8 1 -21 10 34 34 77 34 28 0 33 3 21
11 -12 9 -11 10 8 6 14 -3 20 -1 15 6 -4 7 0 8 12 3 10 -4 21 -2 25 4 3 6 27
11 53 12 25 1 41 5 35 9 -6 4 -2 9 11 14 11 3 25 4 30 1 5 -4 11 -2 13 2 5 15
138 63 150 56 7 -4 8 -3 4 4 -5 8 0 12 12 12 11 0 22 7 26 15 3 8 9 14 13 13
17 -4 95 44 138 86 25 23 47 41 50 39 3 -2 3 0 0 3 -2 4 1 16 7 28 20 37 26
95 13 131 -6 20 -15 32 -20 28 -4 -5 -5 0 -2 10 4 10 3 16 -2 12 -6 -3 -21 5
-34 17 -49 45 -93 73 -130 82 -15 3 -26 10 -23 15 3 4 -7 6 -22 4 -22 -4 -24
-2 -12 7 12 10 11 11 -8 7 -12 -3 -55 6 -95 19 -101 33 -314 80 -375 83 -15 1
-21 5 -16 13 4 6 3 8 -3 5 -5 -3 -26 -2 -47 3 -22 5 -35 5 -30 0z"/>
<path d="M3278 2713 c7 -3 16 -2 19 1 4 3 -2 6 -13 5 -11 0 -14 -3 -6 -6z"/>
<path d="M2791 2680 c8 -6 8 -9 -2 -12 -9 -3 -7 -7 6 -12 11 -4 16 -4 12 0 -4
5 2 13 14 19 19 11 19 12 -10 12 -18 0 -27 -4 -20 -7z"/>
<path d="M2857 2671 c-13 -5 -2 -14 45 -35 35 -16 80 -46 101 -68 30 -31 37
-45 37 -79 0 -66 -29 -105 -112 -154 -58 -35 -81 -68 -26 -38 18 10 48 28 66
41 31 23 44 18 20 -7 -11 -10 -10 -11 5 -6 9 4 17 15 17 26 0 10 10 27 21 38
15 14 23 36 27 70 5 52 -13 115 -29 105 -5 -3 -6 1 -3 9 3 8 -6 18 -21 25 -14
6 -25 16 -25 22 0 6 -4 8 -10 5 -5 -3 -10 -1 -10 4 0 6 -9 11 -19 11 -11 0
-23 4 -26 10 -11 17 -39 28 -58 21z"/>
<path d="M2990 2650 c-8 -5 -10 -10 -5 -10 6 0 17 5 25 10 8 5 11 10 5 10 -5
0 -17 -5 -25 -10z"/>
<path d="M3805 2540 c3 -5 8 -10 11 -10 2 0 4 5 4 10 0 6 -5 10 -11 10 -5 0
-7 -4 -4 -10z"/>
<path d="M3376 2493 c-6 -14 -5 -15 5 -6 7 7 10 15 7 18 -3 3 -9 -2 -12 -12z"/>
<path d="M3646 2455 c32 -77 14 -126 -73 -205 -46 -42 -51 -49 -24 -34 19 11
46 31 61 46 15 15 30 25 34 21 4 -4 4 0 0 10 -8 22 5 22 23 0 13 -16 13 -16 4
4 -13 26 -14 36 -3 30 15 -10 6 99 -11 131 -23 42 -30 41 -11 -3z"/>
<path d="M3616 2452 c-3 -6 -4 -22 0 -36 7 -29 -24 -103 -55 -130 -25 -23 -28
-11 -4 16 16 18 16 18 -1 12 -9 -4 -20 -19 -23 -35 -3 -15 -13 -30 -22 -32
-14 -4 -13 -5 2 -6 25 -1 105 75 112 107 3 15 7 37 10 50 5 29 -9 70 -19 54z"/>
<path d="M3376 2403 c-6 -14 -5 -15 5 -6 7 7 10 15 7 18 -3 3 -9 -2 -12 -12z"/>
<path d="M3026 2333 c-6 -14 -5 -15 5 -6 7 7 10 15 7 18 -3 3 -9 -2 -12 -12z"/>
<path d="M2218 2253 c7 -3 16 -2 19 1 4 3 -2 6 -13 5 -11 0 -14 -3 -6 -6z"/>
<path d="M2507 2159 c7 -7 15 -10 18 -7 3 3 -2 9 -12 12 -14 6 -15 5 -6 -5z"/>
<path d="M2840 2140 c-9 -6 -10 -10 -3 -10 6 0 15 5 18 10 8 12 4 12 -15 0z"/>
<path d="M3258 2075 c-36 -19 -153 -69 -260 -111 -304 -121 -435 -191 -538
-288 -28 -26 -50 -49 -48 -51 2 -2 44 -17 93 -35 l90 -31 15 23 c29 47 118
126 187 166 39 23 76 42 82 42 6 0 11 4 11 9 0 10 -62 -9 -71 -23 -4 -5 -12
-5 -18 -2 -6 4 -11 2 -11 -3 0 -6 -7 -11 -15 -11 -8 0 -15 -4 -15 -8 0 -11
-49 -34 -60 -27 -4 3 -7 -3 -6 -13 1 -12 -5 -16 -19 -14 -14 2 -16 0 -7 -6 10
-7 6 -13 -13 -28 -15 -10 -33 -31 -41 -46 -8 -16 -23 -28 -33 -28 -30 0 -81
21 -75 31 3 5 -6 9 -20 9 -14 0 -26 4 -26 8 0 13 101 102 115 102 7 0 16 7 19
16 4 9 13 14 22 10 8 -3 12 -2 9 4 -3 6 1 10 9 10 8 0 21 6 29 14 8 8 22 14
33 13 11 -1 18 3 16 12 -2 9 4 12 19 8 11 -3 18 -3 15 1 -9 8 94 53 105 46 5
-3 9 0 9 5 0 6 9 11 20 11 11 0 20 5 20 11 0 7 11 9 28 5 15 -3 21 -3 14 0
-16 7 31 34 59 34 10 0 21 5 25 11 3 6 18 8 33 5 16 -4 21 -3 13 2 -9 6 -6 12
13 20 15 7 31 10 36 7 5 -4 9 -2 9 3 0 11 78 47 97 45 7 0 10 4 6 10 -4 6 0 8
11 4 9 -4 14 -3 11 2 -3 5 11 15 30 22 19 7 35 17 35 22 0 4 10 5 23 2 17 -5
19 -4 7 4 -20 14 -15 15 -92 -24z"/>
<path d="M3600 2091 c0 -10 19 -25 25 -20 1 2 -3 10 -11 17 -8 7 -14 8 -14 3z"/>
<path d="M4224 2029 c-3 -6 -2 -15 3 -20 5 -5 9 -1 9 11 0 23 -2 24 -12 9z"/>
<path d="M1345 1989 c-4 -6 -5 -12 -2 -15 2 -3 7 2 10 11 7 17 1 20 -8 4z"/>
<path d="M3918 1993 c7 -3 16 -2 19 1 4 3 -2 6 -13 5 -11 0 -14 -3 -6 -6z"/>
<path d="M3355 1980 c-8 -13 9 -20 24 -11 10 6 9 10 -3 14 -8 3 -18 2 -21 -3z"/>
<path d="M3420 1980 c-9 -6 -10 -10 -3 -10 6 0 15 5 18 10 8 12 4 12 -15 0z"/>
<path d="M2315 1960 c-3 -6 1 -7 9 -4 18 7 21 14 7 14 -6 0 -13 -4 -16 -10z"/>
<path d="M2081 1824 c13 -14 25 -20 27 -14 2 6 -4 18 -14 25 -31 24 -39 17
-13 -11z"/>
<path d="M2576 1821 c-19 -7 -19 -8 0 -13 13 -3 21 0 21 8 0 8 -1 14 -1 13 -1
0 -10 -4 -20 -8z"/>
<path d="M2892 1774 c-14 -16 -5 -18 17 -5 7 5 9 11 5 14 -5 3 -15 -1 -22 -9z"/>
<path d="M2425 1720 c3 -5 8 -10 11 -10 2 0 4 5 4 10 0 6 -5 10 -11 10 -5 0
-7 -4 -4 -10z"/>
<path d="M2405 1691 c-3 -5 0 -13 6 -17 7 -4 9 -3 5 4 -3 5 0 13 6 15 9 4 10
6 1 6 -6 1 -14 -3 -18 -8z"/>
<path d="M2350 1660 c0 -14 41 -23 51 -11 5 6 6 9 3 7 -3 -3 -17 -1 -30 4 -14
6 -24 6 -24 0z"/>
<path d="M2476 1652 c-2 -4 4 -8 14 -8 10 0 16 4 14 8 -3 4 -9 8 -14 8 -5 0
-11 -4 -14 -8z"/>
<path d="M2540 1620 c-13 -8 -12 -10 3 -10 9 0 17 5 17 10 0 12 -1 12 -20 0z"/>
<path d="M2105 4860 c-3 -6 1 -7 9 -4 18 7 21 14 7 14 -6 0 -13 -4 -16 -10z"/>
<path d="M4517 4389 c7 -7 15 -10 18 -7 3 3 -2 9 -12 12 -14 6 -15 5 -6 -5z"/>
<path d="M4704 4189 c-3 -6 -2 -15 3 -20 5 -5 9 -1 9 11 0 23 -2 24 -12 9z"/>
<path d="M922 3245 c0 -16 2 -22 5 -12 2 9 2 23 0 30 -3 6 -5 -1 -5 -18z"/>
<path d="M4545 1621 c-3 -5 -2 -12 3 -15 5 -3 9 1 9 9 0 17 -3 19 -12 6z"/>
<path d="M4217 1340 c-9 -11 -13 -20 -7 -20 5 0 14 9 20 20 6 11 9 20 8 20 -2
0 -11 -9 -21 -20z"/>
<path d="M3890 1140 c-9 -6 -10 -10 -3 -10 6 0 15 5 18 10 8 12 4 12 -15 0z"/>
</g>
</svg>
